<?xml version="1.0" encoding="utf-8"?>
<!-- Generator: Adobe Illustrator 24.1.1, SVG Export Plug-In . SVG Version: 6.00 Build 0)  -->
<svg version="1.1" id="Layer_1" xmlns="http://www.w3.org/2000/svg" xmlns:xlink="http://www.w3.org/1999/xlink" x="0px" y="0px"
	 viewBox="0 0 512 512" style="enable-background:new 0 0 512 512;" xml:space="preserve">
<g id="XMLID_1_">
	<path id="XMLID_8_" d="M93.5,85.6l31.7,387.3c0,21.4,17.7,39.1,39.1,39.1h188c21.4,0,39.1-17.7,39.1-39.1l30.7-387.3
		C422.1,85.6,93.5,85.6,93.5,85.6z M175.4,438.5l-9.3-310.9h24.2l9.3,310.9H175.4z M269.4,438.5h-24.2v-310h24.2V438.5z
		 M339.2,438.5h-25.1l9.3-310.9h24.2L339.2,438.5z M401.6,37.2h-48.4L317.8,6.5C313.2,1.9,306.7,0,300.1,0h-86.6
		c-6.5,0-13,2.8-17.7,6.5l-35.4,30.7h-48.4c-23.3,0-40,11.2-40,34.4h367.7C441.6,48.4,424.9,37.2,401.6,37.2z"/>
</g>
</svg>
